<svg width="125" height="60" fill="none" xmlns="http://www.w3.org/2000/svg"><path fill-rule="evenodd" clip-rule="evenodd" d="M125 0H14.3339v4.02644H125V0zM14.2146 29.9359c0-9.2012 5.6101-16.1565 14.8112-16.1565 6.7315 0 12.1179 3.9489 12.5683 10.3226h-4.4887c-.4504-3.8147-3.5909-6.2842-7.8559-6.2842h-.4474c-6.5078 0-10.0988 5.3865-10.0988 12.1181s3.591 12.1181 10.0988 12.1181h.4474c4.265 0 7.4055-2.4696 7.8559-6.2842h4.4887c-.4474 6.3737-5.8338 10.3226-12.5683 10.3226-9.2011 0-14.8112-6.9583-14.8112-16.1565zm29.8192 4.441c0-7.7636 5.1627-11.623 10.4567-11.623 5.8338 0 9.5142 4.0384 9.5142 9.8722v2.4696H48.2958c.2684 5.1151 3.5462 7.4057 6.2841 7.4057h.3579c2.1982 0 4.3098-1.1215 4.7572-3.5015h4.2649c-.8082 4.5334-4.7123 7.0925-9.3352 7.0925-5.5654 0-10.5909-3.8595-10.5909-11.7155zm15.7059-2.6455c-.179-3.9042-2.5143-5.3865-5.0703-5.3865h-.3579c-2.3323 0-4.936 1.3899-5.7443 5.3865h11.1725zm12.4549-15.7151h-4.2649V45.645h4.2649V16.0163zM79.46 40.7058V26.8817h-4.936v-3.6804h4.936v-7.185h4.265v7.1879h6.2812v3.6805H83.725v13.1501c0 1.3481.0179 1.7955.0179 1.7955h6.2603v3.8147h-5.6071c-3.1406 0-4.9361-1.7955-4.9361-4.9392zm17.8414-17.5045h-4.0413V45.639h4.265V34.2844c0-4.4887 2.4695-7.182 6.5079-7.182h.901v-4.1278h-1.125c-2.917 0-5.6098 1.7955-6.5076 5.1628v-4.9361zM121.099 45.645l-.224-3.591c-.898 2.0192-3.591 4.0384-7.182 4.0384-4.265 0-7.405-2.8275-7.405-6.6422 0-5.1151 4.533-6.6421 8.169-6.9553l6.195-.4921v-.7188c0-3.1406-1.796-4.9361-4.668-4.9361h-.358c-2.335 0-4.354 1.1214-4.623 3.3673h-4.265c.269-4.1279 3.994-6.9553 9.067-6.9553 5.968 0 9.111 3.9489 9.111 8.5271v14.361l-3.817-.003zm-.447-8.0798v-2.2876l-5.611.4474c-2.603.2237-4.488 1.4823-4.488 3.5463 0 1.8402 1.527 3.2301 3.635 3.2301h.358c2.738 0 6.106-2.2429 6.106-4.9362zM.116321 55.9736H125V60H.116321v-4.0264zM0 .0985209h4.02639V45.6451H0V.0985209z" fill="#000"/></svg>
